<?xml version="1.0" encoding="iso-8859-1"?>
<!-- Generator: Adobe Illustrator 19.0.0, SVG Export Plug-In . SVG Version: 6.00 Build 0)  -->
<svg version="1.1" id="Capa_1" xmlns="http://www.w3.org/2000/svg" xmlns:xlink="http://www.w3.org/1999/xlink" x="0px" y="0px"
	 viewBox="0 0 512.001 512.001" style="enable-background:new 0 0 512.001 512.001;fill:#ffffff" xml:space="preserve">
<g>
	<g>
		<path d="M303.799,222.068l-62.225-46.12c-2.307-1.711-5.381-1.973-7.948-0.682c-2.565,1.291-4.184,3.919-4.184,6.791v92.239
			c0,2.872,1.619,5.5,4.184,6.791c1.082,0.544,2.253,0.812,3.419,0.812c1.602,0,3.194-0.506,4.529-1.495l62.225-46.119
			c1.935-1.434,3.076-3.7,3.076-6.108C306.875,225.769,305.735,223.503,303.799,222.068z M244.651,259.195v-62.037l41.85,31.019
			L244.651,259.195z"/>
	</g>
</g>
<g>
	<g>
		<path d="M399.633,347.218H208.52v-22.385c0-4.2-3.405-7.604-7.604-7.604h-21.629c-4.199,0-7.604,3.404-7.604,7.604v22.385h-60.662
			c-4.199,0-7.604,3.404-7.604,7.604s3.405,7.604,7.604,7.604h60.662v14.452c0,4.2,3.405,7.604,7.604,7.604h21.629
			c4.199,0,7.604-3.404,7.604-7.604v-14.452h191.113c4.199,0,7.604-3.404,7.604-7.604S403.832,347.218,399.633,347.218z
			 M193.313,369.274h-6.421v-36.837h6.421V369.274z"/>
	</g>
</g>
<g>
	<g>
		<path d="M494.257,90.8h-285.23c-4.199,0-7.604,3.404-7.604,7.604s3.405,7.604,7.604,7.604h227.949v299.983H74.691V106.008h46.468
			c4.199,0,7.604-3.404,7.604-7.604s-3.405-7.604-7.604-7.604H17.743C7.96,90.8,0,98.761,0,108.543v294.914
			c0,9.783,7.96,17.743,17.743,17.743h476.515c9.783,0,17.743-7.96,17.743-17.743V108.543C512,98.761,504.04,90.8,494.257,90.8z
			 M59.484,405.992L59.484,405.992H17.743c-1.397,0-2.535-1.136-2.535-2.535V108.543c0-1.398,1.138-2.535,2.535-2.535h41.741
			V405.992z M496.792,403.457c0,1.398-1.138,2.535-2.535,2.535h-42.072V106.008h42.072c1.397,0,2.535,1.137,2.535,2.535V403.457z"/>
	</g>
</g>
<g>
	<g>
		<path d="M35.995,212.462c-4.199,0-7.604,3.404-7.604,7.604v86.516c0,4.2,3.405,7.604,7.604,7.604c4.199,0,7.604-3.404,7.604-7.604
			v-86.516C43.599,215.866,40.196,212.462,35.995,212.462z"/>
	</g>
</g>
<g>
	<g>
		<path d="M474.322,212.462c-4.199,0-7.604,3.404-7.604,7.604v86.516c0,4.2,3.405,7.604,7.604,7.604
			c4.199,0,7.604-3.404,7.604-7.604v-86.516C481.926,215.866,478.521,212.462,474.322,212.462z"/>
	</g>
</g>
<g>
</g>
<g>
</g>
<g>
</g>
<g>
</g>
<g>
</g>
<g>
</g>
<g>
</g>
<g>
</g>
<g>
</g>
<g>
</g>
<g>
</g>
<g>
</g>
<g>
</g>
<g>
</g>
<g>
</g>
</svg>
